<?xml version="1.0" encoding="utf-8"?>
<!-- Generator: Adobe Illustrator 24.0.1, SVG Export Plug-In . SVG Version: 6.00 Build 0)  -->
<svg version="1.1" id="Layer_1" xmlns="http://www.w3.org/2000/svg" xmlns:xlink="http://www.w3.org/1999/xlink" x="0px" y="0px"
	 viewBox="0 0 205.6 205.6" style="enable-background:new 0 0 205.6 205.6;" xml:space="preserve">
<style type="text/css">
	.st0{fill:#0367A6;}
	.st1{fill:#FFFFFF;}
</style>
<title>X-ray round logo</title>
<circle class="st0" cx="102.8" cy="102.8" r="102.8"/>
<path class="st1" d="M120.7,102.8c0,8.4-6.8,15.2-15.2,15.2s-15.2-6.8-15.2-15.2s6.8-15.2,15.2-15.2c0,0,0,0,0,0
	C113.9,87.6,120.7,94.4,120.7,102.8z"/>
<path class="st1" d="M58.5,181.4l33.2-54.8c0,0,11.8,7.7,27.4,0l29.3,55.8C148.3,182.4,106.4,210.8,58.5,181.4z"/>
<path class="st1" d="M196.5,98.8l-64.1,0.8c0,0,0.4-14.1-14.5-23.3l32-54.3C150,21.9,196.2,42.5,196.5,98.8z"/>
<path class="st1" d="M62.6,19.3l29.6,56.8c0,0-12.7,6-14.3,23.4l-62.9-4C14.9,95.5,12.6,44.9,62.6,19.3z"/>
</svg>
