<svg id="Layer_1" data-name="Layer 1" xmlns="http://www.w3.org/2000/svg" viewBox="0 0 205.61 205.61"><defs><style>.cls-1{fill:#0367a6;}.cls-2{fill:#fff;fill-rule:evenodd;}</style></defs><title>service4</title><circle class="cls-1" cx="102.8" cy="102.8" r="102.78"/><path class="cls-2" d="M84.34,147.1c-.57-3.41-1.57-6.81-1.62-10.23-.14-8.71-2.91-15.82-9.46-22-5.43-5.12-6.83-12.6-7.77-19.88a7.39,7.39,0,0,0-1-3.55c-1.36,3.55-2.67,7.12-4.1,10.63-1.92,4.69-9.51,5.47-12.55,1.23-2.4-3.34-4.54-6.87-6.9-10.48q-2.4,6-4.78,12c-8.07-.23-15.86-9.38-14.6-17,.81-4.89,8-9,12.93-7.23,2,.7,3.92,1.62,5.82,2.41C45.7,76,54,72.38,63.46,79.38a40.51,40.51,0,0,1,4.38-3.45c2-1.16,4.37-1.72,6.24-3C83,66.7,90.86,70.93,98.87,75c4.92,2.53,5.79,6.47,4.33,11.23-2.36,7.72-5.08,15.33-7.32,23.09a48.63,48.63,0,0,0-2,11.54C93.57,129.86,90.06,141.93,84.34,147.1Z" transform="translate(0.02 0.03)"/><path class="cls-2" d="M144.4,80c5.33-3.19,10.89-6.73,17.86-2.91,3.72,2,6.16,4.12,4.6,8.93-1.67,5.12-2.63,10.46-4.23,15.61-.51,1.63-2.13,4.21-3.14,4.16-3.06-.15-7.13-.42-8.88-2.37-3.48-3.87-5.66-8.89-8.42-13.5-2.62,8.45-5.73,17.24-8,26.25-2,7.9-2.93,16.07-4.64,24-.51,2.41-2.05,4.61-3.12,6.9l-2-.13c-.66-3.71-2-7.44-1.83-11.11a25.13,25.13,0,0,0-8.34-20.43c-6.15-5.79-7.6-13.73-8.72-21.63a83.2,83.2,0,0,1-.91-13.38,6.25,6.25,0,0,1,2.8-4.49c4.62-2.48,9.52-4.47,14.34-6.56a4.26,4.26,0,0,1,2.8-.44c5.64,2.32,11.26,4.68,16.74,7.34C142.62,76.93,143.35,78.68,144.4,80Z" transform="translate(0.02 0.03)"/><path class="cls-2" d="M167.8,92.06c-.06-7.32,2.28-10.89,8.15-11.47,3.37-.34,7.17,2.08,10.48,3.82.84.44,1,3.13.68,4.6a81.76,81.76,0,0,1-3.46,11.36c-1.93,4.94-6.53,6.11-9.92,2.06C170.79,98.93,169.06,94.35,167.8,92.06Z" transform="translate(0.02 0.03)"/></svg>