<?xml version="1.0" encoding="utf-8"?>
<!-- Generator: Adobe Illustrator 24.0.1, SVG Export Plug-In . SVG Version: 6.00 Build 0)  -->
<svg version="1.1" id="Layer_1" xmlns="http://www.w3.org/2000/svg" xmlns:xlink="http://www.w3.org/1999/xlink" x="0px" y="0px"
	 viewBox="0 0 205.6 205.6" style="enable-background:new 0 0 205.6 205.6;" xml:space="preserve">
<style type="text/css">
	.st0{fill:#0367A6;}
	.st1{fill:#FFFFFF;}
</style>
<title>Anaesthetic round logo</title>
<circle class="st0" cx="102.8" cy="102.8" r="102.8"/>
<path class="st1" d="M72.3,143.2L47.6,174c-0.8,0.9-2.1,1-3,0.2c-0.8-0.7-1-2-0.3-2.9L69,140.5l-2-1.6c-0.9-0.7-1-2.1-0.3-3l4.3-5.4
	l-6-4.8c-0.9-0.7-1-2.1-0.3-3l53.4-66.5l-1.2-0.9c-0.9-0.7-1.1-2.1-0.3-3l4.4-5.5c0.4-0.4,0.9-0.7,1.4-0.8c0.6-0.1,1.1,0.1,1.6,0.5
	l9,7.3l9.2-11.6l-4.8-3.8c-0.9-0.7-1.1-2.1-0.3-3l4.8-6c0.7-0.9,2.1-1.1,3-0.3l20,16.1c0.9,0.7,1.1,2.1,0.3,3l-4.8,6.1
	c-0.4,0.4-0.9,0.7-1.5,0.8c-0.6,0.1-1.1-0.1-1.6-0.5l-4.8-3.8l-9.3,11.5l9,7.3c0.9,0.7,1.1,2.1,0.3,3l-4.4,5.5
	c-0.7,0.9-2.1,1.1-3,0.3l-1.2-1l-53.4,66.5c-0.4,0.4-0.9,0.7-1.4,0.8c-0.6,0.1-1.1-0.1-1.6-0.5l-6-4.8l-4.3,5.4
	c-0.7,0.9-2.1,1.1-3,0.3L72.3,143.2z"/>
<rect x="149.6" y="30.8" transform="matrix(0.6266 -0.7793 0.7793 0.6266 24.1474 133.403)" class="st0" width="3.4" height="21.4"/>
<rect x="135.5" y="49.5" transform="matrix(0.6266 -0.7793 0.7793 0.6266 12.8873 130.7374)" class="st0" width="14.8" height="4.8"/>
<rect x="133.3" y="46" transform="matrix(0.6265 -0.7794 0.7794 0.6265 1.8788 128.1844)" class="st0" width="2.8" height="32.3"/>
<path class="st0" d="M88.8,139.2l52.1-64.8l-19.5-15.7l-5.1,6.3l10.6,8.5c0.5,0.3,0.7,0.9,0.5,1.5c-0.3,0.5-0.9,0.7-1.5,0.5
	c-0.1-0.1-0.2-0.1-0.3-0.2L115,66.7l-5.5,6.8l3.5,2.8c0.5,0.3,0.6,1,0.3,1.5s-1,0.6-1.5,0.3c0,0-0.1-0.1-0.1-0.1l-3.5-2.8l-5.5,6.8
	l10.6,8.5c0.5,0.3,0.6,1,0.3,1.5s-1,0.6-1.5,0.3c0,0-0.1-0.1-0.1-0.1l-10.6-8.5l-5.5,6.8l3.5,2.8c0.4,0.4,0.5,1.1,0.1,1.5
	c-0.4,0.4-1,0.5-1.4,0.2l-3.4-2.8L89.1,99l10.5,8.5c0.4,0.4,0.5,1.1,0.1,1.5c-0.4,0.4-1,0.5-1.4,0.2l-10.6-8.5l-5.5,6.8l3.5,2.8
	c0.4,0.4,0.3,1.1-0.1,1.5c-0.3,0.3-0.8,0.4-1.2,0.1l-3.5-2.8l-5.5,6.8l10.6,8.5c0.5,0.4,0.5,1.1,0.2,1.5c0,0,0,0,0,0
	c-0.4,0.5-1,0.5-1.5,0.2c0,0,0,0,0,0l-10.6-8.5l-4.8,6L88.8,139.2z"/>
<rect x="72.5" y="134" transform="matrix(0.6265 -0.7794 0.7794 0.6265 -78.5093 109.3477)" class="st0" width="4.8" height="5.2"/>
</svg>
