<?xml version="1.0" encoding="utf-8"?>
<!-- Generator: Adobe Illustrator 24.0.1, SVG Export Plug-In . SVG Version: 6.00 Build 0)  -->
<svg version="1.1" id="Layer_1" xmlns="http://www.w3.org/2000/svg" xmlns:xlink="http://www.w3.org/1999/xlink" x="0px" y="0px"
	 viewBox="0 0 205.6 205.6" style="enable-background:new 0 0 205.6 205.6;" xml:space="preserve">
<style type="text/css">
	.st0{fill:#0367A6;}
	.st1{fill-rule:evenodd;clip-rule:evenodd;fill:#FFFFFF;}
	.st2{fill-rule:evenodd;clip-rule:evenodd;fill:#0367A6;}
	.st3{fill:#FFFFFF;}
</style>
<title>Biochemistry round logo</title>
<circle class="st0" cx="102.8" cy="102.8" r="102.8"/>
<path class="st1" d="M102.8,54.6l17.1-13.8c5.6,6.9,11.2,13.8,16.8,20.6c4.5,5.6,8.5,11.7,13.7,16.6c2.8,2.6,7.4,3.5,11.4,4.5
	c9.2,2.3,18.5,4.7,27.9,6.4c12.6,2.2,12.2,14.6,5.6,20.5c-12.7,11.3-26,22.1-39.6,32.2c-9.2,6.9-19.2,1.2-19.7-10.3
	c-0.5-11.2-0.8-22.5-1.5-33.7c-0.2-2.6-1.2-5.1-2.7-7.2C122.4,78.6,112.7,66.7,102.8,54.6z M177.9,92.7c-9.5-2.1-17.8-3.9-26-6
	c-2.4-0.6-5.3-1.3-6.7-3c-8.8-10.1-17.1-20.6-25.6-31c-3.9-4.8-3.8-4.9-8.2-0.2c0.1,0.4,0.2,0.7,0.4,1.1c8.8,11,17.5,22.1,26.6,32.8
	c2.7,3.2,3.3,6.5,3.6,10.2c0.6,7.8,1.5,15.5,2.3,24.1C155.7,111.2,166.3,102.3,177.9,92.7L177.9,92.7z"/>
<path class="st1" d="M97.7,87.4c1.2,5.7,2.7,10.6,3,15.5s-2.4,7.3-7.3,7.3c-5.4,0-7.4-2.9-5.7-8C89.5,96.7,92.1,91.7,97.7,87.4z"/>
<path class="st1" d="M102.3,56.1c0.9,6.2,2.2,11.4,2.3,16.6c0.1,1.9-1.2,3.9-1.8,5.3s-4.5,2.1-6.2,1.6c-1.2-0.3-4.3-2.8-4.3-2.8
	c-0.7-0.2-1.3-2.2-1.1-3.1C92.9,67.1,95.7,61.1,102.3,56.1z"/>
<path class="st2" d="M177.8,92.7c-11.5,9.6-22.1,18.5-33.6,28c-0.9-8.6-1.7-16.4-2.3-24.1c-0.3-3.8-0.9-7-3.6-10.2
	c-9.1-10.7-17.8-21.8-26.6-32.8c-0.2-0.3-0.3-0.7-0.4-1.1c4.4-4.7,4.3-4.6,8.2,0.2c8.4,10.4,16.8,20.9,25.5,31.1
	c1.4,1.7,4.4,2.4,6.7,3C160,88.8,168.3,90.6,177.8,92.7z"/>
<path class="st1" d="M104.6,75c0.3,3.7-2.5,6.9-6.2,7.2c-3.7,0.3-6.9-2.5-7.2-6.2s2.5-6.9,6.2-7.2c0.2,0,0.3,0,0.5,0
	C101.5,68.6,104.5,71.4,104.6,75z"/>
<path class="st1" d="M98.3,86.2c0.9,6.2,2.2,11.4,2.3,16.6c0,1.9-1.2,3.9-1.8,5.3s-4.5,2.1-6.2,1.6c-1.2-0.3-4.3-2.8-4.3-2.8
	c-0.6-0.2-1.3-2.2-1-3.1C88.9,97.2,91.6,91.3,98.3,86.2z"/>
<path class="st1" d="M100.6,105.1c0.3,3.7-2.5,6.9-6.2,7.2c-3.7,0.3-6.9-2.5-7.2-6.2s2.5-6.9,6.2-7.2c0.2,0,0.3,0,0.5,0
	C97.4,98.8,100.4,101.6,100.6,105.1z"/>
<path class="st3" d="M31.8,139.7L14,108.4l17.8-31.2h32.9l17.6,29.5l-16.5,31.9L31.8,139.7z M18.6,108.4l15.5,27.2l29.3-0.9
	l14.4-27.8L62.5,81.2H34.2L18.6,108.4z"/>
<rect x="31" y="59.1" class="st3" width="4" height="19.2"/>
<rect x="14.3" y="108.4" class="st3" width="4" height="19.2"/>
<rect x="62.4" y="135" class="st3" width="4" height="19.2"/>
<rect x="31" y="113.6" class="st3" width="4" height="22.4"/>
</svg>
